<?xml version="1.0" standalone="no"?><!DOCTYPE svg PUBLIC "-//W3C//DTD SVG 1.1//EN" "http://www.w3.org/Graphics/SVG/1.1/DTD/svg11.dtd"><svg t="1722093925931" class="icon" viewBox="0 0 1024 1024" version="1.1" xmlns="http://www.w3.org/2000/svg" p-id="16815" xmlns:xlink="http://www.w3.org/1999/xlink" width="200" height="200"><path d="M987.428571 555.885714l-7.314285-7.314285c-7.314286-14.628571-14.628571-21.942857-29.257143-29.257143-7.314286-7.314286-29.257143-14.628571-29.257143-21.942857h51.2c0-7.314286-7.314286-14.628571-14.628571-14.628572-14.628571-14.628571-29.257143-21.942857-43.885715-36.571428-7.314286-7.314286-14.628571-7.314286-29.257143-14.628572 0 0-7.314286 0-7.314285-7.314286s-7.314286-14.628571-7.314286-21.942857c7.314286-36.571429-7.314286-58.514286-14.628571-73.142857 0-14.628571-7.314286-21.942857-14.628572-36.571428-29.257143-51.2-51.2-80.457143-95.085714-109.714286-7.314286-7.314286-14.628571-7.314286-29.257143-7.314286h-21.942857s-7.314286-7.314286-14.628572-7.314286c-14.628571-7.314286-51.2-36.571429-65.828571 0 0 7.314286 14.628571 29.257143 21.942857 36.571429 0 7.314286 7.314286 14.628571 14.628572 21.942857v14.628572c7.314286 14.628571 7.314286 29.257143 14.628571 43.885714l7.314286 14.628571 7.314285 7.314286c0 7.314286 0 14.628571-7.314285 21.942857-7.314286 36.571429 0 73.142857 7.314285 102.4 0 7.314286 14.628571 21.942857 29.257143 14.628572 14.628571-7.314286 7.314286-21.942857 14.628572-36.571429v-7.314286c7.314286 7.314286 7.314286 14.628571 7.314285 21.942857 7.314286 14.628571 21.942857 29.257143 36.571429 36.571429l14.628571 14.628571-7.314285-7.314285c-7.314286-7.314286-7.314286-14.628571-14.628572-14.628572-14.628571-14.628571-21.942857-36.571429-29.257143-51.2 0-7.314286-7.314286-14.628571-14.628571-29.257143V365.714286c0 7.314286-7.314286 14.628571-14.628571 14.628571 7.314286 21.942857 7.314286 36.571429 7.314285 51.2-7.314286 0-14.628571-14.628571-14.628571-21.942857-7.314286-21.942857-7.314286-51.2 0-80.457143 0-7.314286 7.314286-21.942857 7.314286-29.257143-7.314286-7.314286-14.628571-7.314286-14.628572-14.628571l-14.628571-14.628572c0-14.628571-7.314286-36.571429-14.628572-51.2 0-7.314286-7.314286-14.628571-14.628571-21.942857 0-7.314286-7.314286-14.628571-7.314286-21.942857v-14.628571h14.628572c7.314286 0 14.628571 7.314286 21.942857 14.628571 0 0 7.314286 7.314286 14.628571 7.314286h29.257143c14.628571 7.314286 21.942857 14.628571 36.571429 21.942857 36.571429 21.942857 58.514286 58.514286 80.457142 102.4 0 7.314286 0 14.628571 7.314286 21.942857 7.314286 14.628571 14.628571 29.257143 14.628572 43.885714 7.314286 14.628571 7.314286 29.257143 14.628571 36.571429 0 7.314286 14.628571 7.314286 29.257143 14.628571l21.942857 14.628572c7.314286 7.314286 14.628571 14.628571 21.942857 14.628571 0 0 14.628571 7.314286 14.628572 14.628572-21.942857 0-36.571429 0-51.2 7.314285h-14.628572v7.314286c0 7.314286 7.314286 14.628571 14.628572 14.628572 7.314286 7.314286 14.628571 7.314286 14.628571 14.628571 7.314286 7.314286 21.942857 14.628571 29.257143 14.628571 21.942857 14.628571 29.257143 21.942857 36.571428 29.257143z" fill="#02608A" p-id="16816"></path><path d="M702.171429 212.114286h-7.314286l14.628571 21.942857s7.314286-7.314286 7.314286-14.628572c-7.314286 7.314286-7.314286 0-14.628571-7.314285zM212.114286 548.571429l-51.2 190.171428-58.514286-190.171428H51.2C43.885714 629.028571 36.571429 716.8 29.257143 811.885714H73.142857c0-73.142857 0-131.657143 7.314286-197.485714l51.2 197.485714h36.571428L219.428571 614.4c7.314286 73.142857 7.314286 131.657143 7.314286 197.485714h43.885714c0-80.457143-14.628571-160.914286-21.942857-263.314285h-36.571428z m182.857143 65.828571c-7.314286 58.514286-7.314286 109.714286-29.257143 160.914286 0-14.628571 0-14.628571-7.314286-43.885715l-29.257143-117.028571h-43.885714l43.885714 146.285714c7.314286 21.942857 7.314286 36.571429 7.314286 43.885715v14.628571c-7.314286 7.314286-14.628571 7.314286-29.257143 7.314286H292.571429v36.571428c0 14.628571 14.628571 14.628571 21.942857 14.628572 21.942857 0 43.885714-14.628571 65.828571-51.2 21.942857-43.885714 43.885714-109.714286 58.514286-212.114286h-43.885714z" fill="#02608A" p-id="16817"></path><path d="M928.914286 768v-219.428571h-43.885715V804.571429h109.714286v-36.571429h-65.828571z m-117.028572 21.942857s7.314286-7.314286 7.314286-14.628571c14.628571-21.942857 29.257143-58.514286 29.257143-109.714286 0-87.771429-29.257143-124.342857-87.771429-124.342857-29.257143 0-51.2 14.628571-65.828571 36.571428-21.942857 21.942857-29.257143 58.514286-29.257143 102.4 0 43.885714 7.314286 80.457143 21.942857 102.4 14.628571 14.628571 36.571429 29.257143 65.828572 29.257143h29.257142l51.2 36.571429 14.628572-29.257143-36.571429-29.257143z m-51.2-21.942857c-14.628571 0-29.257143-7.314286-36.571428-21.942857-7.314286-14.628571-14.628571-36.571429-14.628572-73.142857 0-58.514286 14.628571-87.771429 43.885715-87.771429 14.628571 0 29.257143 7.314286 36.571428 21.942857 14.628571 21.942857 14.628571 36.571429 14.628572 73.142857 0 58.514286-14.628571 87.771429-43.885715 87.771429zM621.714286 680.228571S585.142857 658.285714 570.514286 650.971429c-14.628571-14.628571-21.942857-21.942857-21.942857-36.571429 0-7.314286 7.314286-14.628571 14.628571-21.942857 0-14.628571 7.314286-14.628571 21.942857-14.628572 14.628571 0 29.257143 7.314286 43.885714 14.628572l7.314286-36.571429c-14.628571-7.314286-36.571429-14.628571-58.514286-14.628571-21.942857 0-36.571429 7.314286-51.2 14.628571-14.628571 14.628571-21.942857 36.571429-21.942857 58.514286 0 29.257143 7.314286 43.885714 21.942857 58.514286 0 0 29.257143 21.942857 51.2 29.257143 14.628571 14.628571 29.257143 21.942857 29.257143 36.571428s0 21.942857-14.628571 29.257143c-7.314286 7.314286-14.628571 0-29.257143 0s-29.257143-7.314286-51.2-14.628571v36.571428c21.942857 14.628571 43.885714 21.942857 65.828571 21.942857 21.942857 0 43.885714-7.314286 58.514286-21.942857 14.628571-14.628571 21.942857-36.571429 21.942857-51.2-7.314286-29.257143-14.628571-43.885714-36.571428-58.514286z" fill="#E58E01" p-id="16818"></path></svg>