<?xml version="1.0" standalone="no"?><!DOCTYPE svg PUBLIC "-//W3C//DTD SVG 1.1//EN" "http://www.w3.org/Graphics/SVG/1.1/DTD/svg11.dtd"><svg t="1722094450358" class="icon" viewBox="0 0 1024 1024" version="1.1" xmlns="http://www.w3.org/2000/svg" p-id="21845" xmlns:xlink="http://www.w3.org/1999/xlink" width="200" height="200"><path d="M588 877.2c0-4 11.6-16.8 26-29.2 30.8-26 55.6-62.4 68.4-100.8 12.8-37.2 12-54-2.8-88.4-23.2-52.4-47.2-78.4-93.6-101.6-31.2-15.6-44.4-19.6-90-27.6-85.2-14-144-61.2-167.6-133.2-10.8-32.4-11.6-100-2-132.8 10-34.4 36.4-73.2 63.6-94 21.2-16 76.8-29.6 121.6-29.6 40 0 109.2 13.6 144 28.8 68.8 29.2 149.2 99.6 185.6 162.4 52.8 90.4 66 206.8 34 304.8-20.8 64.8-82.8 145.2-146 189.2-37.2 26-93.2 51.6-124 56.8-15.2 2.4-17.2 1.6-17.2-4.8z" fill="#62AAD7" p-id="21846"></path><path d="M460 888c-41.6-4.8-102.8-29.2-146.4-58.4-64.4-43.2-107.2-93.2-139.6-163.2-25.2-54.4-30.8-81.2-31.2-148.4 0-67.2 5.6-93.6 32.8-151.6 36.4-76.8 89.6-134.8 162.4-176 30.8-17.6 100.8-44.8 104.8-41.2 0.8 0.8-5.6 6-13.6 11.6-64 42.8-97.2 99.6-97.2 166.8 0 98 68.4 172 176 190 45.6 8 58.8 12 90 27.6 46.4 23.2 70.4 49.2 93.6 101.6 10 23.2 12.4 34 12.4 56.4 0 35.2-12.8 74.8-35.2 109.2-16.8 25.6-58.8 65.6-75.6 72-13.6 5.2-98.8 7.6-133.2 3.6z" fill="#A6D271" p-id="21847"></path></svg>